<?xml version="1.0" encoding="UTF-8"?>
<svg id="_레이어_1" data-name="레이어_1" xmlns="http://www.w3.org/2000/svg" version="1.1" xmlns:xlink="http://www.w3.org/1999/xlink" viewBox="0 0 1920 1080">
  <!-- Generator: Adobe Illustrator 30.3.0, SVG Export Plug-In . SVG Version: 2.1.3 Build 182)  -->
  <defs>
    <style>
      .st0 {
        stroke-width: 2.25px;
      }

      .st0, .st1, .st2, .st3, .st4, .st5, .st6, .st7, .st8, .st9, .st10 {
        fill: none;
      }

      .st0, .st1, .st2, .st4, .st5, .st6, .st7, .st8, .st9, .st10 {
        stroke: #fff;
        stroke-dasharray: 0 6.5;
        stroke-linecap: round;
      }

      .st1 {
        stroke-width: 2.56px;
      }

      .st2 {
        stroke-width: 3.17px;
      }

      .st4 {
        stroke-width: 3.78px;
      }

      .st5 {
        stroke-width: 5px;
      }

      .st11 {
        fill: url(#_큰_점_물결_모양);
      }

      .st6 {
        stroke-width: 3.47px;
      }

      .st7 {
        stroke-width: 4.69px;
      }

      .st8 {
        stroke-width: 4.08px;
      }

      .st9 {
        stroke-width: 4.39px;
      }

      .st10 {
        stroke-width: 2.86px;
      }
    </style>
    <pattern id="_큰_점_물결_모양" data-name="큰 점 물결 모양" x="0" y="0" width="83" height="65" patternTransform="translate(1001.24 1113.87) scale(1.15)" patternUnits="userSpaceOnUse" viewBox="0 0 83 65">
      <g>
        <rect class="st3" width="83" height="65"/>
        <line class="st5" x1="83" y1="66.3" x2="83" y2="131.8"/>
        <g>
          <line class="st5" y1="66.3" y2="131.8"/>
          <line class="st7" x1="4.61" y1="63.05" x2="4.61" y2="131.8"/>
          <line class="st9" x1="9.22" y1="66.3" x2="9.22" y2="131.8"/>
          <line class="st8" x1="13.83" y1="63.05" x2="13.83" y2="131.8"/>
          <line class="st4" x1="18.44" y1="66.3" x2="18.44" y2="131.8"/>
          <line class="st6" x1="23.06" y1="63.05" x2="23.06" y2="131.8"/>
          <line class="st2" x1="27.67" y1="66.3" x2="27.67" y2="131.8"/>
          <line class="st10" x1="32.28" y1="63.05" x2="32.28" y2="131.8"/>
          <line class="st0" x1="41.5" y1="63.05" x2="41.5" y2="131.8"/>
          <line class="st5" x1="83" y1="66.3" x2="83" y2="131.8"/>
          <line class="st7" x1="78.39" y1="63.05" x2="78.39" y2="131.8"/>
          <line class="st9" x1="73.78" y1="66.3" x2="73.78" y2="131.8"/>
          <line class="st8" x1="69.17" y1="63.05" x2="69.17" y2="131.8"/>
          <line class="st4" x1="64.56" y1="66.3" x2="64.56" y2="131.8"/>
          <line class="st6" x1="59.94" y1="63.05" x2="59.94" y2="131.8"/>
          <line class="st2" x1="55.33" y1="66.3" x2="55.33" y2="131.8"/>
          <line class="st10" x1="50.72" y1="63.05" x2="50.72" y2="131.8"/>
        </g>
        <line class="st5" y1="66.3" y2="131.8"/>
        <line class="st5" x1="83" y1="1.3" x2="83" y2="66.8"/>
        <g>
          <line class="st5" y1="1.3" y2="66.8"/>
          <line class="st7" x1="4.61" y1="-1.95" x2="4.61" y2="66.8"/>
          <line class="st9" x1="9.22" y1="1.3" x2="9.22" y2="66.8"/>
          <line class="st8" x1="13.83" y1="-1.95" x2="13.83" y2="66.8"/>
          <line class="st4" x1="18.44" y1="1.3" x2="18.44" y2="66.8"/>
          <line class="st6" x1="23.06" y1="-1.95" x2="23.06" y2="66.8"/>
          <line class="st2" x1="27.67" y1="1.3" x2="27.67" y2="66.8"/>
          <line class="st10" x1="32.28" y1="-1.95" x2="32.28" y2="66.8"/>
          <line class="st1" x1="36.89" y1="1.3" x2="36.89" y2="66.8"/>
          <line class="st0" x1="41.5" y1="-1.95" x2="41.5" y2="66.8"/>
          <line class="st5" x1="83" y1="1.3" x2="83" y2="66.8"/>
          <line class="st7" x1="78.39" y1="-1.95" x2="78.39" y2="66.8"/>
          <line class="st9" x1="73.78" y1="1.3" x2="73.78" y2="66.8"/>
          <line class="st8" x1="69.17" y1="-1.95" x2="69.17" y2="66.8"/>
          <line class="st4" x1="64.56" y1="1.3" x2="64.56" y2="66.8"/>
          <line class="st6" x1="59.94" y1="-1.95" x2="59.94" y2="66.8"/>
          <line class="st2" x1="55.33" y1="1.3" x2="55.33" y2="66.8"/>
          <line class="st10" x1="50.72" y1="-1.95" x2="50.72" y2="66.8"/>
          <line class="st1" x1="46.11" y1="1.3" x2="46.11" y2="66.8"/>
        </g>
        <line class="st5" y1="1.3" y2="66.8"/>
        <line class="st5" x1="83" y1="-63.7" x2="83" y2="1.8"/>
        <g>
          <line class="st5" y1="-63.7" y2="1.8"/>
          <line class="st7" x1="4.61" y1="-66.95" x2="4.61" y2="1.8"/>
          <line class="st9" x1="9.22" y1="-63.7" x2="9.22" y2="1.8"/>
          <line class="st8" x1="13.83" y1="-66.95" x2="13.83" y2="1.8"/>
          <line class="st4" x1="18.44" y1="-63.7" x2="18.44" y2="1.8"/>
          <line class="st6" x1="23.06" y1="-66.95" x2="23.06" y2="1.8"/>
          <line class="st2" x1="27.67" y1="-63.7" x2="27.67" y2="1.8"/>
          <line class="st10" x1="32.28" y1="-66.95" x2="32.28" y2="1.8"/>
          <line class="st1" x1="36.89" y1="-63.7" x2="36.89" y2="1.8"/>
          <line class="st0" x1="41.5" y1="-66.95" x2="41.5" y2="1.8"/>
          <line class="st5" x1="83" y1="-63.7" x2="83" y2="1.8"/>
          <line class="st7" x1="78.39" y1="-66.95" x2="78.39" y2="1.8"/>
          <line class="st9" x1="73.78" y1="-63.7" x2="73.78" y2="1.8"/>
          <line class="st8" x1="69.17" y1="-66.95" x2="69.17" y2="1.8"/>
          <line class="st4" x1="64.56" y1="-63.7" x2="64.56" y2="1.8"/>
          <line class="st6" x1="59.94" y1="-66.95" x2="59.94" y2="1.8"/>
          <line class="st2" x1="55.33" y1="-63.7" x2="55.33" y2="1.8"/>
          <line class="st10" x1="50.72" y1="-66.95" x2="50.72" y2="1.8"/>
          <line class="st1" x1="46.11" y1="-63.7" x2="46.11" y2="1.8"/>
        </g>
        <line class="st5" y1="-63.7" y2="1.8"/>
      </g>
    </pattern>
  </defs>
  <path class="st11" d="M205.45,598.74l3.07-7-2.9-6-1.8-5.99.16-6,5.04-5.99-5.89-6,5.32-6-.19-6-.48-6-3.67-6-.98-6,3.58-6-2-6-.71-6,5.18-5.99-3.75-6-.55-6-1.22-6-.05-6,1.66-6,3.92-6-4.55-6,2.22-6.01,1.19-4.43,4.39-1.99,5.97-2.94,5.98,3.25,5.98-1.81,5.49,2.4-1.34,5.61-.78,6.1,3.97,6.1-3.29,6.1,1.29,6.1-1.67,6.09,3.87,6.1-.26,6.1-2.74,7.58,7.67,1.77,6.22-2.19,6.22.29,6.22-4.73,6.22,4.66,6.21-3.56,6.22,2.59,6.22.35,5.91-.99,1.33-5.77-1.63-6.1-.3-6.1,3.43-6.1.37-6.1-1.21-6.09-2.33-6.1,1.73-6.1,1.38-3.7,3.52-.26,5.97,1.1,5.98-2.92,5.98,1.09,5.43-.87-.92,5.45-.39,6,2.57,5.99,2.66,6-2.12,5.99-.89,6-.42,6,1.53,6-3.44,6,.11,6,3.36,6,.34,6-2.47,6-.48,6-.37,5.99,2.52,6-2.65,6,2.7,6-1.88,6-2.56,6,6.87,6-3.25,6,1.64,6.01-2.86,5.08-5.04-1.43-5.97,1.1-5.98,3.24-5.98-1.71-7.94,1.73-1.06-7.85.31-5.84,1.18-5.84-.22-5.84,5.03-5.84-2.47-5.84,2.5-5.84-6.53-5.84.87-5.84,1.48-5.85,3.06-8.18-8.4,4.6-6.22-5.67-6.22.28-6.22,1.46-6.22,2.01-6.21,1.1-6.22.43-6.22-3.47-5.07,2.82-.75,4.61-.22,5.84,3.05,5.84-3.45,5.84,2.33,5.84-4.32,5.84,3.09,5.84-.83,5.84,1.61,5.84-1.49,5.85,2.1,8.17-8.25-3.55-5.97,4.55-5.98-.25-6.07-4.16-6.91,2.1Z"/>
  <path class="st11" d="M359.53,619.78l1.05-1.96,7.7-.44,4.85-3.74,2.83-6.04,4.58-5.03-1.37-5.76-4.64-4.61,1.43-6.75-.99-5.89-6.32-4.02,4-7.65-7.03-3.77,1.44-6.75-3.44-5.03-5.05-4.47,3.01-7.3-6.19-4.07-1.75-5.63,2.01-6.95-2.49-5.37-5.65-4.26,1.61-6.81-1.63-5.68-4.51-4.67-.78-5.59,5.84.13,6.19-1.64,6.19-.25,6.2,4.35,7.65-4.91.39,7.59,4.43,4.79.08,6.07,2.59,5.33,2.94,5.22-1.23,6.46,4.35,4.81-4.67,7.48,6.63,4.14-.67,6.3-.17,6.15,6.77,4.1-2.91,6.97,3.25,8.44.27-9.27,5.58-4.48-4.41-7.28,3.1-5.18,5.62-4.47,1.01-5.76-1.85-6.56,1.84-5.53,4.42-4.81,3.69-5.02-4.51-7.31,4.18-4.88,1.96-5.51,1.5-5.19,5.5,2.52,5.91-5.59,5.92,2.56,5.92-2.98,7.71,1.72-1,8-8.03,3.72,2.04,7.23-2.72,5.57.27,6.62-7.79,3.81-.34,6.4,2.33,7.34-7.91,3.76,2.49,7.39-2.35,5.71-4.79,4.85.33,6.64.23,6.61-6.25,4.34,2.52,7.41-5.87,4.49-1.02,6.17-1.49,5.73-1.19,5.87-.68,6.11-8.38,2.92-.66,6.07-4.73,3.99-.43,6.37-3.65,6.76-8.08-3.18-5.89,3.97-6.62.7-6.01,1.32-5.69-2.88-.1-5.04.59-5.57,1.47-4.79-.47-4.72Z"/>
  <path class="st11" d="M537.83,492.57l4.01,5.34,6.31,1.63,2.45,6.1,3.66,4.62,6.31,3.15.96,6.22,4.2,5.07-4.19,6.93,3.81,4.8-.7,5.34,2.51,5.26-2.33,3.99-5.56,1.9-5.96-2.49-5.96,2.64-5.96-3.07-5.96-.34-5.96,1.45-5.96.73-5.96-.81-5.96.26-5.96,3.35-5.97-3.74-5.97,1.17-6.22-.37,2.75,6.77-1.73,7.44,3.39,6.39,6.01,4.03,5.61,1.25,5.75-1.74,4.95,5.58,5.91-.72,5.12-3.32,5.76-1.83-.2-6.6,4.27-3.8,6.01,3.27,5.68-2.88,5.68-1.51,5.69-.23,6.48.36-.82,8.27-5.21,3.65.53,7.07-6.92,1.46-1.63,7.57-5.64,3.56-6.84.83-5.84,2.42-5.81,3.48-6.82-3.46-6.15,5.12-5.6-5.06-6.35,3.6-4.65-5.54-5.82-.5-4.51-3.72-6.32-.59-2.56-6.14-6.83-1.19-1.9-6-3.19-4.84-1.39-5.66-3.21-5.18-1.56-5.77-1.52-5.88.34-6.01-.18-5.86,4.47-5.34.68-5.55.89-5.55-1.4-6.7,2.56-5.45,3.43-4.98,6.03-2.51,4.71-3.56,5.65-1.93,4.62-3.47,4.79-4.02,6.37,1.33,5.34-4.72,6.11-.25,6.44,1.44,5.93,3.28,6.66-.64,6.4,1.4ZM496.49,518.16l-5.95,3.31-.22,6.71-2.63,7.64,6.69.04,5.99-3.79,5.99,1.67,5.99-2.47,5.99,5.51,5.99-3.27,6,.98,5.32-2.29,1-4.8-4.23-5.15-2.27-6.55-6.52-1.16-4.84-4.84-6.39-.96-6.27,2.02-5.71,2.71-3.94,4.69Z"/>
  <path class="st11" d="M672.58,585.13l-5.99,2.08-2.54,5.74-4.65,3.58-5.19,2.84-6.45-1.5-5.06,3.74-5.85-.55-5.71.31-5.57-2.42-5.89,1.99-5.66-1.06-6.02-.3-4.1-5-6.34-.66-4.02-4.4-5.41-3.1-2.22-6.23-.25-6.88-4.4-4.62-2.08-5.78-2.6-5.79,1.97-6.44-3.81-6.03-.49-6.36,6.15-5.4-1.41-6.48,2.79-5.5,1.44-6.06,2.32-5.84,3.57-5.15,4.54-3.8,4.08-4.28,4.95-3.26,6.27-.11,5.8.02,4.98-3.58,5.5-3.23,5.9,4.48,5.92-4.66,5.22,5.17,5.72-.03,6.51-1.31,4.57,4.24,5.95,1.6,4.86,3.62,3.21,5.18,3.76,5.02,4.25,4.87-1.26,7.36,2.28,5.57,1.62,5.83-.27,6.1,1.69,5.98-1.41,6.03-1.68,5.82.68,6.31.26,6.64-4.98,4.58v7.24s-5.49,3.84-5.49,3.84ZM649.28,568.94l5.88-4.3-.66-7.21.36-6.4-.22-6.37,3.02-6.63-3.68-6-.85-6.44-3.34-5.54-2.32-5.59-6.12-.68-5.05-1.47-5.26,1.02-5.53-2.45-4.26,4.12-4.75,1.85-2.11,4.83-4.65,4.27-5.12,5.28,1.04,6.92-.12,6.51,1.59,6.38-1.68,6.88,5.38,5.01,3.6,4.74-.14,7.61,6.31.6,4.94,2.46,5.5-.7,5.11-1.37,4.79-1.58,4.74-1.99,3.59-3.76Z"/>
  <path class="st11" d="M794.21,498.72l6.23,2.67,2.74,5.89-1.3,6.84.9,5.89,2.92,6.05,1.42,5.97-.82,5.97-2.59,5.97,1.76,5.97-1.81,5.97,1.53,5.97-.2,5.97,1.7,5.97-.93,5.97-.69,5.98,2.66,5.98-.52,7.39-7.18-.93-5.7.37-5.7-1.02-5.71-1.36-7,2.79-.59-7.14.13-5.88-.81-5.88.42-5.89.38-5.89-.42-5.89.59-5.89,2.52-5.88,1.53-5.89-4.43-5.89,3.86-5.89-4.45-6.27,2.03-7.47-6.68-2.5-4.69-2.97-5.83-3.55-5.57,4.26-5.63.99-6.44,2.05.66,7.38-6.47,3.7,4.36,6.24-4.54,5.27,3.23,5.76-.18,5.76-3.46,5.76,2.18,5.76.25,5.76-.3,5.76.51,5.76-2.64,5.76,1.28,5.77-.69,4.39-4.13-.86-5.56,3.91-5.57-3.85-5.57,2.42-6.22.37.38-6.51-1.42-5.9,2.67-5.9-3.31-5.9,3.61-5.9-2.19-5.9-.12-5.9,3.13-5.9-3.47-5.9.49-5.9,2.56-5.9-1.53-5.9.84-5.9.86-5.9-2.5-5.9,1.54-5.91-3.44-5.91,3.85-4.44,5.44-.99,6.74-3.03,6.74,2.33,6.3.79-1.52,4.6,2.79,5.18.28,4.87,2.58-3.43,3.49-3.73,4.07-2.84,4.25-3.51,5.34-1.46,4.98-4.61,5.99-.97,5.88,1.69,5.62,1.89,4.94,3.25,5.76,1.05,3.58,4.7Z"/>
  <path class="st11" d="M888.95,489.6l3.37,5.84,6.15,1.36,3.64,4.6,2.37,5.16.54-5.05.51-5.11-.71-4.96,5.29-.16,5.42,3.41,5.43-1.47,5.43,1.19,6.42-4.02,1.95,6.84-2.76,5.94.7,5.94-3.17,5.94,1.62,5.94.64,5.94-.89,5.94-2.43,5.93,6.59,5.94-2.5,5.94.34,5.94,2.16,5.94-1.45,5.94-4.72,5.94,5.99,5.94-3.05,5.95.99,5.95-4.4,6.26,1.17,6.42-.96,6.24-1.58,6.1-2.57,5.76-4.63,3.29-2.92,4.97-4.28,3.92-6.21-.09-4.89,2.89-5.04,3.78-5.86-.11-5.6,3.15-5.87-.47-5.76-3.55-6.24,3.25-5.45-3.51-4.58-4.9-7.19,2.57-4.89-3.64-5.01-3.45-2.17-5.99-.49-5.95-5.18-4.04.52-2.51,4.93-5.42,6.05-.85,6.05-.79,6.06.35,5.32,4.97,4.93,5.01,3.28,5.99,5.98-.24,5.5,1.69,5.38-6.93,6.63,2.57,3.6-5.15,6.06-2.91,2.16-5.54-1.79-5.99,2.37-5.36.23-5.58,1.16-7.45-5.39,6.79-3.65,6.61-5.8,2.51-6.93-2.22-4.6,6.97-6.16-3.05-5.84-3.5-5.89-.27-4.92-3.36-5.79-1.26-5.18-2.94-8.04-1-.86-7.12-5.07-4.2.7-6.85,1.33-6.36-1.01-5.55-2.4-5.54,1.51-5.84-4.7-6.13.47-6.14,5.26-5.11-2.21-6.83,5.97-4.08,3.28-4.73-.27-7.19,4.89-4.31,4.14-5.14,7.5.54,5.46-2.21,5.78-1.79,6.12-6.6,7,4.77,7.6-.26ZM896.5,566.35l6.38-3.24-.6-6.91,1.26-6,.73-6.18.26-6.12-.5-6.17-2.58-5.65-3.35-5.1-2.84-7.24-7.28-1.72-6.94-2.07-6.13,5.2-4.59,3.82-6.16,2.25-2.45,5.95-4.81,5.07.67,6.48.38,6.19-.58,5.73-1.33,6.27,8.04,3.24.79,6.47,4.7,4,6.13.37,5.63,2.11,6.91,3.8,3.17-7.93,5.07-2.62Z"/>
  <path class="st11" d="M988.53,492.28l2.51,4.84-.8,5.83-.99,5.83-.42,5.83-1.4,5.83,2.67,5.83-2.75,5.83,2.88,5.83,1.61,5.84.19,5.84-1.64,5.84,1.06,6.76,2.48,5.86,2.61,4.25,3.87,4.92,6.14-2.61,6.25,3.29,4.55-4.79,4.94-2.79,4.9-4.1-1.26-6.26,2.45-5.18,1.74-5.6-.28-5.78-.17-5.79.72-5.79-2.2-5.79,1.23-5.79.68-5.79-4.08-5.79,3.23-5.79,1.27-5.8-1.68-5.65,5.49-2.58,5.64,3.77,5.64-.45,5.65-1.18,4.72,1.18,1.42,5.03-.76,5.91,1.84,5.91,1.11,5.91-4.33,5.91.47,5.91-.37,5.91.15,5.91,3.94,5.91-4.98,5.91,3.85,5.91.14,5.91-4.03,5.91,2.8,5.92.68,5.91-2.24,5.92,3.93,5.92-1.38,7.11-6.71-1.79-5.41,2.76-5.41-3.88-5.41.19-6.97,3.22.16-6.69,4.07-5.01-3.29-4.98-3.27,1.66-1.06,6.33-5.77.78-2.67,4.93-4.76,1.83-6.83,3.62-7.55-2.38-6.31-.21-5.7-2.98-5.79-1.53-6.26-1.63-2.93-5.75-5.6-3.9-2.15-5.39.36-5.9-2.32-5.38.36-5.72-1.93-5.65.68-5.83,3.38-5.83-.13-5.83-2.95-5.83,1.17-5.83-.96-5.83,2.1-5.83-3.71-5.83,4.61-5.84-2.64-5.84-.34-6.55,6.43,1.58,5.7-.72,5.7-2.85,5.46,5.31,4.95-1.63Z"/>
  <path class="st11" d="M1089.21,455.67l3.94-3.07,5.46.81,5.47-.76,5.47.29,7.06-.12-3.91,7.43,4.82,5.97-3.39,5.97-1.37,5.97,2.52,5.97-.07,5.97.31,5.97,1.75,5.97-4.53,5.97,4.92,5.97-3.21,5.98,1.04,5.98-1.27,8.03,6.66-4.8-.02-7.88,8.44-.49.38-7.54,7.31-1.48,1.12-6.88,6.12-2.52,4.47-3.97,2.31-4.73,4.89-2.86,5.77,4.42,5.76-1.03,5.77-.45,5.77-2.08,4.47.55-.75,6.05-7.95.83-2.24,6.32-3.99,4.65-6.35,2.37-4.24,4.4-5.16,3.53-2.08,6.49-.7,4.98.35,4.26,3.2,5,3.48,4.84-1.2,7.64,5.17,3.83,4.44,4.27,3.38,4.9,3.27,4.97,3.68,4.73,1.84,5.82,1.94,5.77,5.59,3.59,1.51,6.48-6.05,3.06-5.64-2.57-5.64,2.87-5.65-4.55-5.65,4.14-4.68-4.79-5.6-2.41,1-7.24-3.53-4.68-5.37-3.63-2.92-5.02-1.18-6.01-5.73-3.43-1.55-5.81-2.21-3.55-4.58.89-.47,7.24-8.19.96,3.23,6.4-4.24,5.58,1.28,5.58.49,5.58.67,5.59,2.64,7.56-7.49.29-5.46-2.03-5.47.58-5.47,2.32-7.49-1.28-1.02-7.83,6.57-5.98-2.61-5.97-.19-5.98-2.72-5.97,1.47-5.98-2.9-5.98,1.44-5.98.51-5.98-1.7-5.98.64-5.98,4.28-5.98,1.61-5.98-5.21-5.98,4.46-5.97-3.44-5.98.44-5.98-2.81-5.98,6.11-5.98-3.07-5.98,1.26-5.98-.89-5.98-.54-6.03,1.85-4.55Z"/>
  <path class="st11" d="M1281.32,545.33l2.4,1.13-.11,5.93-1.82,6.17,1.21,5.98.89,6.39,4.59,4.13,5.27,2.18,5.46-3.27,4.92.61,4.22-2.04,5.62-2.54,2.27-5.1-2.27-5.41-2.01-5.01-.46-5.92,4.25-5.92.94-5.92-5.89-5.92,5.96-5.92.73-5.92-2.52-5.92-4.23-5.92,2.5-5.92,4.14-5.92-5.21-5.92.37-5.92,2.26-5.92,1.99-5.92-2.95-5.93.51-5.93-1.95-7.89,7.95,4.09,6.01-5.81,6.02.94,6.02,5.68,3.92-.8,4.35,3.75-4.76,5.89,2.55,5.89-1.85,5.89,4.29,5.89.81,5.89-3.69,5.89-.71,5.89,2.55,5.89-.91,5.89-3.04,5.89,3.73,5.89-1.88,5.9.42,5.89-1.56,5.9,2.83,5.9,1.56,5.9.25,6.21-2.11,6.01-4.62,5.22-3.11,4.96-1.11,5.61-.46,7.33-6.31,2.65-3.52,6.46-6.26,2.45-6.93-.93-6.17,1.65-6.36,2.29-5.98-1.71-6.31,1.68-5.03-5.57-6.83,1.52-4.41-4.84-2.39-6-2.71-4.4-5.61-3.42-3.71-4.96,1.8-6.68-3.03-5.34-2.21-5.72-2.26-5.91-.6-6.09,4.58-.89,4.26-2.78,5.68,3.14,5.68-1.64,5.57-.59,4.53,1.63Z"/>
  <path class="st11" d="M1447.7,492.71l3.95,5.39,6.41,1.47,3.67,5.02,3.95,4.66,3.27,4.97.26,6.26,5.09,4.57,1.35,5.93,1.11,5.33,1.09,5.34-1.49,5.37-1.95,2.86-5.21,2.23-5.96.11-5.96-1.94-5.96,2.21-5.96-1.1-5.96,1.93-5.96,1.43-5.96-.31-5.96-2.05-5.96-2.52-5.97-.09-5.97,3.78-6.58-2.79,2.29,7.86,2.26,5.86,1.36,6.82,7.18,1.29,3.62,4.07,5.28.13,5.1,2.63,5.07-3.44,6.01,1.51,5.89-1.74,2.97-4.26.81-6.82,6.11,3.93,5.68-1.03,5.68-1.3,5.69-.69,6.46-1.35-3.89,7.08-.37,5.76-3.48,4.33-1.45,6.19-7,1.96-4.84,3.96-5.75,2.46-5.75,2.45-5.9,2.59-6.55-1.85-6.16,3.4-5.87-.42-5.64-1.86-5.3-2.44-6.05-.12-4.34-4.3-6.61-.25-4.56-3.81-1.39-6.96-4.9-3.32-3.86-4.55-4.12-4.87,2.55-6.84-3.72-5.28,2.47-6.12-5.11-5.77.68-5.89.13-5.94,6.11-4.8-2.51-6.56,5.97-3.86.49-5.98,3.01-4.85,3.65-4.41,2.78-6.09,5.8-2.56,5.55-2.63,5.72-2.17,6.61,2.11,5.47-3.29,5.99-2.78,6.33,3.88,6.88-2.37,6.37,1.95,5.78,3.32ZM1406.31,518.05l-6.04,3.3-.06,6.81-2.03,6.17,6.13-.27,5.99-.24,5.99,2.32,5.99-3.48,5.99-.13,5.99-.53,6-.81,5.58,1.67,1.88-5.78-4.68-5.25-4.14-4.78-4.13-5.03-6.55.11-5.88-1.68-5.84,2.47-4.81,3.12-5.39,1.98Z"/>
  <path class="st11" d="M1580.37,583.39l-1.83,5.97-4.54,3.6-5.03,2.86-5.13,2.7-5.24,2.95-5.77,1.32-6.18-3.87-5.56,3.15-5.9,1.79-5.31-4.56-5.31-1.83-6.82,2.66-4.08-5.2-4-4.08-5.19-2.39-5.42-2.84-2.46-5.91-2.51-5.62-4.15-4.91-1.88-5.98-.97-6.17,1.87-6.38-1.98-5.99.81-6.06-.71-6.27,1.47-6.02,4.82-4.76.48-6.34,3.49-4.99,2.1-6.05,3.83-4.46,4.99-3.11,4.17-4.45,5.45-2.44,6.79,2.6,5.13-2.73,5.41-3.7,5.89,4.14,5.59.08,6.15-3.39,5.34,3.02,6.3-.48,5.33,2.81,4.6,3.88,2.52,5.87,4.41,3.48,4.54,4.26,1.31,6.25,2.93,5.25,2.26,5.61,4.85,5.3-1.04,6.49-.27,6.21-.91,6.14-1.76,5.92-.88,6.01-2.58,5.51-2.03,5.68-.17,7.09-7.2,2.39ZM1561.42,570.6l.97-7.13,2.03-6.04,1.17-6.32-.11-6.45-1.58-6.28-1.15-6.08,2.28-7.56-5.86-4.27-4.84-2.17-2.37-6.03-5.26-2.39-5.7,4.05-5.46-2.65-5.84.3-4.15,4.16-2.21,5.19-4.45,4.69-2.65,6.02.73,6.66-.36,6.38-.08,6.43-1.56,6.93,3.72,5.82,2.83,6,4.81,2.84,4.38,2.81,4.46,4.56,5.82-1.66,5.51.04,4.58-3.31,4.24-2.81,6.1-1.72Z"/>
  <path class="st11" d="M1705.54,497.03l1.97,6.4,5.47,3.91,4.06,5.6-3.7,7.01,4.55,6.11-3.49,5.97-.16,5.97.1,5.97.66,5.97-1.22,5.97,1.64,5.97.98,5.97-2.44,5.97-.32,5.97.18,5.98,1.44,5.98,2.22,7.68-7.49-1.88-5.7,2.72-5.7-4.8-5.71,4.47-5.24-2.66-1.33-5.43,2.22-5.88-3.28-5.88,2.62-5.89-3.27-5.89.77-5.89,1.79-5.89-2.26-5.88,2.62-5.89,1.92-5.89-2.88-5.89,1.23-6.73-5.16-5.01-2.27-5-4.11-6.19-6.81-.5-5.9,3.51-5.01,2.9-7.2,1.18.86,7.64-1.11,4.94-4.84,4.74.8,5.64.46,5.76-1.96,5.76,1.95,5.76-2.12,5.76.45,5.76-.56,5.76.58,5.76-.26,5.76,3.36,5.77-.98,6.27-6.09-.22-5.56-2.81-5.57,2.3-5.57-1.52-4.37.62-2.01-4.77,1.34-5.9-2.52-5.9,3.48-5.9-.64-5.9-1.49-5.9-.26-5.9,1.04-5.9,2.14-5.9-3.42-5.9-.72-5.9.1-5.9,3.06-5.9-.76-5.9-.73-5.9-.56-5.91,2.17-5.91-.27-4.61,5.59-2.51,6.74-1.49,6.74,5.06,5.11-.24.84,3.05,2.69,5.18-2.06,5.22,3.17-4.3,1.43-5.74,4.64-3.17,5.62-2.29,5.79-1.03,5.57-1.29,5.73-1.51,5.91-.2,5.11,4.3,6.08-.55,4.87,3.16,5.22,2.59Z"/>
</svg>